<?xml version="1.0" encoding="UTF-8" standalone="no"?>
<svg width="72" height="72" version="1.1" xmlns="http://www.w3.org/2000/svg">
  <rect id="hint-top-margin" width="10" height="30" x="31" y="0" fill="none"/>
  <rect id="hint-bottom-margin" width="10" height="30" x="31" y="42" fill="none"/>
  <rect id="hint-left-margin" width="30" height="10" x="0" y="31" fill="none"/>
  <rect id="hint-right-margin" width="30" height="10" x="42" y="31" fill="none"/>
  
  <rect id="hint-top-inset" width="10" height="6" x="31" y="0" fill="none"/>
  <rect id="hint-bottom-inset" width="10" height="6" x="31" y="66" fill="none"/>
  <rect id="hint-left-inset" width="6" height="10" x="0" y="31" fill="none"/>
  <rect id="hint-right-inset" width="6" height="10" x="66" y="31" fill="none"/>

  <g id="topleft">
    <path fill="#9C27B0" fill-opacity="0.35" d="M 30,6 A 24,24 0 0,0 6,30 L 30,30 Z"/>
  </g>
  <g id="topright">
    <path fill="#9C27B0" fill-opacity="0.35" d="M 42,6 A 24,24 0 0,1 66,30 L 42,30 Z"/>
  </g>
  <g id="bottomleft">
    <path fill="#9C27B0" fill-opacity="0.35" d="M 6,42 A 24,24 0 0,0 30,66 L 30,42 Z"/>
  </g>
  <g id="bottomright">
    <path fill="#9C27B0" fill-opacity="0.35" d="M 66,42 A 24,24 0 0,1 42,66 L 42,42 Z"/>
  </g>

  <g id="top">
    <rect fill="#9C27B0" fill-opacity="0.35" x="30" y="6" width="12" height="24"/>
  </g>
  <g id="bottom">
    <rect fill="#9C27B0" fill-opacity="0.35" x="30" y="42" width="12" height="24"/>
  </g>
  <g id="left">
    <rect fill="#9C27B0" fill-opacity="0.35" x="6" y="30" width="24" height="12"/>
  </g>
  <g id="right">
    <rect fill="#9C27B0" fill-opacity="0.35" x="42" y="30" width="24" height="12"/>
  </g>
  <g id="center">
    <rect fill="#9C27B0" fill-opacity="0.35" x="30" y="30" width="12" height="12"/>
  </g>
</svg>
