<?xml version="1.0" encoding="UTF-8" standalone="no"?>
<svg width="60" height="60" version="1.1" xmlns="http://www.w3.org/2000/svg">
  <rect id="hint-top-margin" width="10" height="24" x="25" y="0" opacity="0"/>
  <rect id="hint-bottom-margin" width="10" height="24" x="25" y="36" opacity="0"/>
  <rect id="hint-left-margin" width="24" height="10" x="0" y="25" opacity="0"/>
  <rect id="hint-right-margin" width="24" height="10" x="36" y="25" opacity="0"/>
  
  <g id="topleft">
    <path fill="#9C27B0" fill-opacity="0.35" d="M 24,0 A 24,24 0 0,0 0,24 L 24,24 Z"/>
  </g>
  <g id="topright">
    <path fill="#9C27B0" fill-opacity="0.35" d="M 36,0 A 24,24 0 0,1 60,24 L 36,24 Z"/>
  </g>
  <g id="bottomleft">
    <path fill="#9C27B0" fill-opacity="0.35" d="M 0,36 A 24,24 0 0,0 24,60 L 24,36 Z"/>
  </g>
  <g id="bottomright">
    <path fill="#9C27B0" fill-opacity="0.35" d="M 60,36 A 24,24 0 0,1 36,60 L 36,36 Z"/>
  </g>

  <g id="top">
    <rect fill="#9C27B0" fill-opacity="0.35" x="24" y="0" width="12" height="24"/>
  </g>
  <g id="bottom">
    <rect fill="#9C27B0" fill-opacity="0.35" x="24" y="36" width="12" height="24"/>
  </g>
  <g id="left">
    <rect fill="#9C27B0" fill-opacity="0.35" x="0" y="24" width="24" height="12"/>
  </g>
  <g id="right">
    <rect fill="#9C27B0" fill-opacity="0.35" x="36" y="24" width="24" height="12"/>
  </g>
  <g id="center">
    <rect fill="#9C27B0" fill-opacity="0.35" x="24" y="24" width="12" height="12"/>
  </g>
</svg>
